<svg xmlns="http://www.w3.org/2000/svg" xml:space="preserve" viewBox="0 0 24 24" id="apple">
  <path d="M21.649 16.674a.496.496 0 0 0-.353-.224c-1.725-.237-3.025-1.72-3.025-3.45a3.48 3.48 0 0 1 2.439-3.316.499.499 0 0 0 .269-.744C19.75 7.009 17.932 6 16.771 6c-.948 0-1.835.298-2.619.561-.672.226-1.307.439-1.881.439s-1.209-.213-1.881-.439C9.607 6.298 8.72 6 7.771 6c-1.867 0-5.5 2.647-5.5 7.5 0 4.612 3.364 10.5 6 10.5 1.403 0 2.231-.371 2.897-.668.415-.186.742-.332 1.103-.332s.688.146 1.103.332c.666.297 1.495.668 2.897.668 2.09 0 4.449-3.588 5.437-6.913a.506.506 0 0 0-.059-.413zM11.771 6c3.033 0 5.5-2.467 5.5-5.5a.5.5 0 0 0-.5-.5 5.506 5.506 0 0 0-5.5 5.5.5.5 0 0 0 .5.5z"></path>
</svg>
